<svg width="34" height="32" viewBox="0 0 34 32" fill="none" xmlns="http://www.w3.org/2000/svg">
<path d="M26.774 13.9687L30.0786 14.0913L26.9179 2.29591L17.7567 8.04903L19.2676 13.69L26.7737 13.9692L26.774 13.9687ZM18.3948 15.4987L19.88 21.0419C20.0076 21.5197 19.7237 22.0104 19.2465 22.1374L15.1749 23.2289C14.6975 23.3562 14.2064 23.0726 14.0794 22.5954L11.0637 11.3415H6.36078C5.07633 11.3415 4.02136 12.3959 4.02136 13.6809V24.6329C4.02136 25.9174 5.07633 26.9723 6.36078 26.9723H23.5774C24.8624 26.9723 25.9168 25.9174 25.9168 24.6329V15.7249L18.6475 15.4545L18.3951 15.4989L18.3948 15.4987ZM14.2288 16.2385L15.5764 21.2678L17.9192 20.6404L16.6256 15.8133L14.2285 16.2389L14.2288 16.2385ZM29.159 3.74252C33.3993 3.8806 34.9008 9.47881 31.296 11.7188L32.1215 14.7981H32.1201C32.2739 15.3741 31.8273 15.9433 31.225 15.9218L27.7092 15.7909V24.6325C27.7092 26.907 25.8517 28.7642 23.5775 28.7642H6.36088C4.08635 28.7642 2.22917 26.9067 2.22917 24.6325V13.6805C2.22917 11.406 4.08664 9.54883 6.36088 9.54883H10.6131C10.6075 9.17849 10.8343 8.82834 11.2018 8.69493L16.3284 6.83577L26.948 0.167168C27.5084 -0.209247 28.1811 0.0903963 28.3344 0.663714L29.1593 3.743L29.159 3.74252ZM30.7947 9.84694C32.1783 8.4722 31.5453 6.10846 29.6594 5.61024L30.7947 9.84694ZM16.1092 8.81629L12.5828 10.0952L13.7634 14.5015L17.4565 13.8459L16.1089 8.81598L16.1092 8.81629ZM29.0534 30.2076C30.2332 30.2076 30.2332 32 29.0534 32H0.884867C-0.294956 32 -0.294956 30.2076 0.884867 30.2076H29.0534Z" fill="white"/>
</svg>
