<svg width="83" height="60" viewBox="0 0 83 60" fill="none" xmlns="http://www.w3.org/2000/svg">
<path d="M8.75526 37.1969C8.46482 37.189 8.1835 37.2984 7.9751 37.5007C7.7667 37.7031 7.64941 37.9813 7.64941 38.2718C7.64941 38.5622 7.76668 38.8399 7.9751 39.0422C8.1835 39.2446 8.46482 39.3545 8.75526 39.346H20.2737C20.5641 39.3545 20.8454 39.2445 21.0538 39.0422C21.2622 38.8399 21.3795 38.5622 21.3795 38.2718C21.3795 37.9813 21.2622 37.7031 21.0538 37.5007C20.8454 37.2984 20.5641 37.189 20.2737 37.1969H8.75526Z" fill="#7215FA"/>
<path d="M32.87 30.5909C32.87 30.3054 32.7569 30.0319 32.5546 29.8302C32.3529 29.6285 32.0789 29.5155 31.7933 29.5161H8.75526C8.46482 29.5076 8.1835 29.6176 7.9751 29.8199C7.7667 30.0222 7.64941 30.2999 7.64941 30.5903C7.64941 30.8808 7.76668 31.159 7.9751 31.3614C8.18351 31.5637 8.46482 31.6731 8.75526 31.6652H31.7933C32.0789 31.6652 32.3523 31.5528 32.5546 31.351C32.7563 31.1493 32.87 30.8759 32.87 30.5909Z" fill="#7215FA"/>
<path d="M37.5559 29.5163C37.2655 29.5078 36.9842 29.6178 36.7764 29.8201C36.568 30.0225 36.4507 30.3001 36.4507 30.5906C36.4507 30.881 36.5679 31.1593 36.7764 31.3616C36.9842 31.5639 37.2655 31.6733 37.5559 31.6654H45.2373C45.8188 31.6484 46.2811 31.1726 46.2811 30.5905C46.2811 30.0091 45.8188 29.5327 45.2373 29.5163L37.5559 29.5163Z" fill="#7215FA"/>
<path d="M46.6449 48.7184H5.87454C4.88657 48.7165 3.93985 48.3234 3.24175 47.6253C2.54301 46.9265 2.1505 45.9793 2.14929 44.9919V14.3849H72.0085L72.0079 23.1077C72 23.3981 72.1093 23.6794 72.3117 23.8872C72.514 24.0956 72.7923 24.2129 73.0827 24.2129C73.3731 24.2129 73.6508 24.0957 73.8531 23.8872C74.0555 23.6794 74.1654 23.3981 74.1569 23.1077V6.59018C74.1551 5.03222 73.5354 3.53944 72.4344 2.43786C71.3334 1.33688 69.8399 0.717199 68.2827 0.715332H5.87423C4.31689 0.717155 2.82411 1.33691 1.72253 2.43786C0.62155 3.53944 0.00186656 5.03238 0 6.59018V44.9931C0.00182285 46.5505 0.621581 48.0439 1.72253 49.1448C2.8235 50.2464 4.31705 50.8661 5.87423 50.868H46.6446C47.2261 50.8516 47.6891 50.3752 47.6891 49.7937C47.6891 49.2122 47.2261 48.7359 46.6446 48.7195L46.6449 48.7184ZM5.87454 2.86317H68.2784C69.2657 2.86438 70.213 3.25751 70.9111 3.95564C71.6099 4.65438 72.0024 5.60101 72.0036 6.58904V12.2355L2.1491 12.2349V6.58906C2.15031 5.60109 2.54282 4.65437 3.24156 3.95565C3.93971 3.25751 4.88694 2.8644 5.87435 2.86318L5.87454 2.86317Z" fill="#7215FA"/>
<path d="M65.5561 24.8948C60.9954 24.8948 56.6218 26.7066 53.3973 29.9312C50.1728 33.1557 48.3608 37.5294 48.3608 42.0894C48.3608 46.65 50.1726 51.0237 53.3973 54.2482C56.6218 57.4726 60.9954 59.2846 65.5561 59.2846C70.1161 59.2846 74.4897 57.4728 77.7142 54.2482C80.9387 51.0237 82.7507 46.65 82.7507 42.0894C82.7452 37.5311 80.9322 33.1607 77.7088 29.9367C74.4848 26.7133 70.1144 24.9002 65.5561 24.8948ZM65.5561 57.135C61.5654 57.135 57.7386 55.5498 54.917 52.728C52.0954 49.9062 50.51 46.0796 50.51 42.0889C50.51 38.0988 52.0952 34.2714 54.917 31.4503C57.7388 28.6285 61.5654 27.0433 65.5561 27.0433C69.5462 27.0433 73.3735 28.6285 76.1952 31.4503C79.0163 34.2714 80.6015 38.0987 80.6015 42.0889C80.5972 46.0779 79.0102 49.9027 76.1897 52.7232C73.3692 55.5437 69.5449 57.1301 65.5561 57.135Z" fill="#7215FA"/>
<path d="M74.153 41.0157H66.6284V33.4923C66.612 32.9109 66.1356 32.4485 65.5541 32.4485C64.9727 32.4485 64.4963 32.9109 64.4799 33.4923V41.0157H56.9566C56.3751 41.0327 55.9121 41.5084 55.9121 42.0905C55.9121 42.672 56.3751 43.1484 56.9566 43.1648H64.4799V50.6887C64.4963 51.2702 64.9727 51.7332 65.5541 51.7332C66.1356 51.7332 66.612 51.2702 66.6284 50.6887V43.1648H74.153C74.7344 43.1484 75.1974 42.672 75.1974 42.0905C75.1974 41.5084 74.7344 41.0327 74.153 41.0157Z" fill="#7215FA"/>
</svg>
