<svg width="37" height="37" viewBox="0 0 37 37" fill="none" xmlns="http://www.w3.org/2000/svg">
<path d="M28.6573 15.0866C28.9791 15.4148 29.4187 15.6007 29.8787 15.6026C30.3321 15.5965 30.7648 15.4106 31.0828 15.0866L35.9505 10.2189C36.2707 9.89674 36.4507 9.46057 36.4507 9.00634C36.4507 8.55175 36.2707 8.11596 35.9505 7.79343L28.6573 0.500285C28.3348 0.18007 27.899 0 27.4444 0C26.9902 0 26.554 0.18007 26.2319 0.500285L21.3642 5.36798C21.0401 5.6859 20.8543 6.11861 20.8481 6.57205C20.8501 7.03203 21.0359 7.47165 21.3642 7.79343L28.6573 15.0866ZM27.5219 4.14671L32.3896 9.01441L29.9642 11.4398L25.0105 6.57176L27.5219 4.14671Z" fill="white"/>
<path d="M34.4026 33.01H13.1765L27.2637 18.9228C27.5858 18.598 27.7651 18.1588 27.7624 17.7015C27.7651 17.2442 27.5858 16.8049 27.2637 16.4801L19.9706 9.18696C19.6476 8.86137 19.208 8.67822 18.7492 8.67822C18.2903 8.67822 17.8507 8.86137 17.5278 9.18696L0.498782 26.216C0.177034 26.5404 -0.00266335 26.98 2.98422e-05 27.4374V34.7305C2.98422e-05 35.1866 0.18126 35.6243 0.503774 35.9469C0.826289 36.2694 1.264 36.4506 1.72013 36.4506H34.4021C35.0168 36.4506 35.5846 36.1227 35.8918 35.5905C36.199 35.0584 36.199 34.4026 35.8918 33.8704C35.5846 33.3383 35.0168 33.0104 34.4021 33.0104L34.4026 33.01ZM3.44075 33.01V28.1423L18.7497 12.8334L23.6174 17.7011L8.30845 33.01H3.44075Z" fill="white"/>
</svg>
