<svg width="49" height="49" viewBox="0 0 49 49" fill="none" xmlns="http://www.w3.org/2000/svg">
<path d="M39.7149 20.4982L38.0114 21.0522L31.5076 20.0073L27.3068 24.2081V24.2085C27.6205 25.2227 27.4779 26.3232 26.9161 27.224C26.3544 28.1247 25.4284 28.7366 24.3796 28.9007C23.3308 29.0647 22.2625 28.765 21.4523 28.0789C20.6421 27.3927 20.1702 26.3882 20.1594 25.327C20.1485 24.2653 20.5994 23.2515 21.3956 22.549C22.1914 21.8461 23.2534 21.5242 24.3053 21.6669L28.7355 17.2363L27.6906 10.7325L28.2446 9.02868L37.2732 0L40.5737 1.00176L41.7026 7.04058L47.7415 8.16953L48.7436 11.4696L39.7149 20.4982ZM37.4049 5.3773L31.7121 11.0701L32.1538 13.8177L37.9072 8.06432L37.4049 5.3773ZM40.6793 10.8357L34.9259 16.5891L37.6735 17.0307L43.3663 11.338L40.6793 10.8357ZM23.8208 35.5662C26.5478 35.5631 29.1626 34.4785 31.0907 32.5499C33.0193 30.6217 34.1039 28.0071 34.1071 25.2799H38.0256C38.0256 29.0472 36.529 32.6603 33.8652 35.3244C31.2011 37.9881 27.5882 39.4848 23.8208 39.4848C20.0534 39.4848 16.4404 37.9881 13.7763 35.3244C11.1126 32.6603 9.6159 29.0473 9.6159 25.2799C9.6159 21.5125 11.1126 17.8996 13.7763 15.2355C16.4404 12.5717 20.0534 11.0751 23.8208 11.0751V14.9936C20.1459 14.9936 16.7502 16.9541 14.9126 20.1368C13.075 23.3194 13.075 27.2404 14.9126 30.4231C16.7502 33.6057 20.1459 35.5662 23.8208 35.5662ZM23.7663 5.63286C12.9625 5.63286 4.17301 14.422 4.17301 25.2262C4.17301 36.0304 12.9621 44.8195 23.7663 44.8195C34.5705 44.8195 43.3597 36.0304 43.3597 25.2262C43.3601 23.7673 43.1987 22.313 42.8784 20.8898L46.7006 20.0267L46.7009 20.0263C47.085 21.7329 47.2786 23.4769 47.2782 25.2262C47.2782 31.4617 44.8011 37.4422 40.392 41.8509C35.9828 46.2601 30.0022 48.7371 23.7673 48.7371C17.5324 48.7371 11.5513 46.26 7.14264 41.8509C2.73344 37.4417 0.256409 31.4611 0.256409 25.2262C0.256409 18.9913 2.73354 13.0102 7.14264 8.60154C11.5518 4.19234 17.5324 1.71531 23.7673 1.71531C25.4393 1.71492 27.1071 1.8918 28.7417 2.24284L27.916 6.07353C26.5527 5.78081 25.1617 5.63347 23.7672 5.63386L23.7663 5.63286Z" fill="#EF9334"/>
</svg>
