<svg width="28" height="28" viewBox="0 0 28 28" fill="none" xmlns="http://www.w3.org/2000/svg">
<path d="M9.38982 28H3.70848C2.72535 27.9988 1.78261 27.6078 1.08754 26.9125C0.392201 26.2174 0.00115589 25.275 0 24.2915V18.6102C0.00120413 17.6271 0.392217 16.6846 1.08754 15.9892C1.78257 15.2942 2.72535 14.9029 3.70848 14.9017H9.38982C10.3729 14.9029 11.3157 15.2942 12.0108 15.9892C12.7061 16.6846 13.0971 17.6271 13.0983 18.6102V24.2915C13.0971 25.275 12.7061 26.2174 12.0108 26.9125C11.3157 27.6078 10.3729 27.9988 9.38982 28ZM11.0755 18.6103C11.0755 18.1633 10.8979 17.7347 10.5818 17.4183C10.2658 17.1022 9.83683 16.9246 9.38981 16.9246H3.70846C3.26146 16.9246 2.83253 17.1022 2.51643 17.4183C2.20037 17.7347 2.02277 18.1633 2.02277 18.6103V24.2917C2.02277 24.739 2.20037 25.1676 2.51643 25.4837C2.8325 25.7998 3.26144 25.9774 3.70846 25.9774H9.38981C9.83681 25.9774 10.2657 25.7998 10.5818 25.4837C10.8979 25.1676 11.0755 24.739 11.0755 24.2917V18.6103ZM9.38982 13.0976H3.70848C2.72535 13.0964 1.78261 12.7051 1.08754 12.0101C0.392201 11.3147 0.00115589 10.3722 0 9.38911V3.70776C0.00120413 2.72433 0.392217 1.7819 1.08754 1.08683C1.78257 0.391489 2.72535 0.000443189 3.70848 -0.0007127H9.38982C10.3729 0.000491351 11.3157 0.391504 12.0108 1.08683C12.7061 1.78186 13.0971 2.72433 13.0983 3.70776V9.38911C13.0971 10.3722 12.7061 11.3147 12.0108 12.0101C11.3157 12.7051 10.3729 13.0964 9.38982 13.0976V13.0976ZM11.0755 3.70792C11.0755 3.26061 10.8979 2.83199 10.5818 2.51589C10.2658 2.19982 9.83683 2.02223 9.38981 2.02223H3.70846C3.26146 2.02223 2.83253 2.19983 2.51643 2.51589C2.20037 2.83196 2.02277 3.2606 2.02277 3.70792V9.38927C2.02277 9.83627 2.20037 10.2649 2.51643 10.5813C2.8325 10.8974 3.26144 11.075 3.70846 11.075H9.38981C9.83681 11.075 10.2657 10.8974 10.5818 10.5813C10.8979 10.2649 11.0755 9.83629 11.0755 9.38927V3.70792ZM24.2912 13.0976H18.611C17.6279 13.0964 16.6852 12.7054 15.9901 12.0104C15.2948 11.315 14.9037 10.3722 14.9026 9.38911V3.70776C14.9038 2.72433 15.2948 1.7819 15.9901 1.08652C16.6851 0.39118 17.6279 0.000134952 18.611 -0.0007127H24.2918C25.2752 0.000491351 26.2176 0.391504 26.9127 1.08683C27.608 1.78186 27.9991 2.72433 28.0002 3.70776V9.38911C27.999 10.3722 27.608 11.3147 26.9127 12.0101C26.2177 12.7051 25.2752 13.0964 24.2918 13.0976H24.2912ZM25.9768 3.70792C25.9768 3.26061 25.7992 2.83199 25.4832 2.51589C25.1671 2.19982 24.7382 2.02223 24.2911 2.02223H18.611C18.164 2.02223 17.7354 2.19983 17.4193 2.51589C17.1029 2.83196 16.9253 3.2606 16.9253 3.70792V9.38927C16.9253 9.83627 17.1029 10.2649 17.4193 10.5813C17.7354 10.8974 18.164 11.075 18.611 11.075H24.2918C24.7391 11.075 25.1677 10.8974 25.4838 10.5813C25.7999 10.2649 25.9774 9.83629 25.9774 9.38927L25.9768 3.70792ZM16.1233 16.7849L16.7099 19.8191L21.214 24.3231L24.4505 21.0866L19.9464 16.5892L16.9122 15.9959C16.6928 15.9541 16.4667 16.0236 16.3087 16.1817C16.1507 16.3394 16.0811 16.5654 16.1233 16.7849L16.1233 16.7849ZM25.8797 22.5162L22.6432 25.7526L23.5334 26.6428H23.5331C23.7862 26.8959 24.1294 27.0383 24.4873 27.0383C24.8452 27.0383 25.1883 26.8959 25.4415 26.6428L26.7698 25.3144H26.7695C27.023 25.0616 27.1651 24.7184 27.1651 24.3605C27.1651 24.0026 27.023 23.6591 26.7695 23.4063L25.8797 22.5162Z" fill="white"/>
</svg>
