<svg width="28" height="24" viewBox="0 0 28 24" fill="none" xmlns="http://www.w3.org/2000/svg">
<path d="M22.9256 3.92604H11.7775C11.3686 3.92604 11.0369 4.2575 11.0369 4.66671V9.29631C11.0369 9.49265 11.1149 9.68124 11.2539 9.81998C11.3929 9.95897 11.5812 10.037 11.7775 10.037H22.9256C23.122 10.037 23.3103 9.95897 23.4493 9.81998C23.5883 9.68124 23.6663 9.49265 23.6663 9.29631V4.66671C23.6663 4.47036 23.5883 4.28177 23.4493 4.14303C23.3103 4.00404 23.122 3.92603 22.9256 3.92603L22.9256 3.92604ZM22.1849 8.55564H12.5183V5.40738H22.1849V8.55564Z" fill="white"/>
<path d="M27.9996 2.59251C27.9996 1.90481 27.7265 1.24549 27.2404 0.759254C26.7541 0.273041 26.0946 0 25.4071 0H9.2961C8.6086 0 7.94908 0.273074 7.46284 0.759254C6.97663 1.24547 6.70359 1.90475 6.70359 2.59251V15.5183H2.59251C1.90501 15.5183 1.24549 15.7917 0.759254 16.2779C0.27304 16.7641 0 17.4234 0 18.1111V19.2592C0 20.3396 0.429117 21.3758 1.19331 22.1401C1.95726 22.904 2.9935 23.3331 4.07418 23.3331H23.074C24.3774 23.3235 25.6247 22.8014 26.5465 21.8796C27.4683 20.9581 27.9904 19.7108 28 18.4074L27.9996 2.59251ZM6.70346 19.2591C6.69364 19.9499 6.4123 20.6094 5.92039 21.0946C5.42824 21.5798 4.76478 21.8516 4.07398 21.8516C3.38629 21.8516 2.72697 21.5785 2.24073 21.0923C1.75451 20.6061 1.48121 19.9466 1.48121 19.2591V18.111C1.47087 17.8131 1.58455 17.5243 1.7951 17.3137C2.00591 17.1029 2.29475 16.9892 2.59238 16.9998H6.70346L6.70346 19.2591ZM26.5181 18.4073C26.5181 19.3208 26.1552 20.1969 25.5093 20.8427C24.8632 21.4886 23.9871 21.8516 23.0736 21.8516H7.22184C7.83541 21.1261 8.17593 20.209 8.18473 19.2591V2.59251C8.18473 2.29774 8.30202 2.0151 8.51025 1.80687C8.71873 1.59838 9.00137 1.48135 9.29589 1.48135H25.4069C25.7017 1.48135 25.984 1.59838 26.1925 1.80687C26.401 2.01509 26.5181 2.29773 26.5181 2.59251L26.5181 18.4073Z" fill="white"/>
<path d="M12.1478 14.1108H18.8515C19.2607 14.1108 19.5922 13.779 19.5922 13.3701C19.5922 12.9609 19.2607 12.6292 18.8515 12.6292H12.1478C11.7386 12.6292 11.4072 12.9609 11.4072 13.3701C11.4072 13.779 11.7386 14.1108 12.1478 14.1108Z" fill="white"/>
<path d="M22.5552 17.0737H12.1478C11.7386 17.0737 11.4072 17.4052 11.4072 17.8144C11.4072 18.2234 11.7386 18.5551 12.1478 18.5551H22.5552C22.9644 18.5551 23.2958 18.2234 23.2958 17.8144C23.2958 17.4052 22.9644 17.0737 22.5552 17.0737Z" fill="white"/>
</svg>
