<svg width="28" height="28" viewBox="0 0 28 28" fill="none" xmlns="http://www.w3.org/2000/svg">
<path d="M23.3563 20.8486C23.1241 20.8486 22.8456 20.7556 22.66 20.57L17.9703 15.6015H10.3089C8.49801 15.6015 7.05865 14.1621 7.05865 12.3512V3.25026C7.05865 1.43936 8.49801 0 10.3089 0H24.7497C26.5606 0 28 1.43936 28 3.25026V12.3512C28 14.1621 26.5606 15.6015 24.7497 15.6015H24.3782L24.2853 19.9663C24.2853 20.3378 24.053 20.6627 23.6815 20.802C23.5886 20.8486 23.4493 20.8486 23.3563 20.8486L23.3563 20.8486ZM10.3085 1.81086C9.51921 1.81086 8.91545 2.41459 8.91545 3.20394V12.3049C8.91545 13.0942 9.51918 13.698 10.3085 13.698H18.388C18.6666 13.698 18.8988 13.791 19.0844 13.9766L22.474 17.5984L22.5203 14.5803C22.5203 14.0696 22.9381 13.6518 23.4489 13.6518H24.749C25.5383 13.6518 26.1421 13.048 26.1421 12.2587V3.15771C26.1421 2.36838 25.5384 1.76462 24.749 1.76462H10.3082L10.3085 1.81086Z" fill="white"/>
<path d="M4.64366 27.7673C4.5507 27.7673 4.41142 27.7673 4.31846 27.721C3.94696 27.5817 3.71473 27.2565 3.71473 26.8386V22.4738H3.25026C1.43935 22.4738 0 21.0344 0 19.2235V10.1226C0 8.31167 1.43935 6.87231 3.25026 6.87231H5.29342C5.8042 6.87231 6.22201 7.29014 6.22201 7.8009C6.22201 8.31169 5.80418 8.72949 5.29342 8.72949H3.25026C2.46093 8.72949 1.85717 9.33322 1.85717 10.1226V19.2235C1.85717 20.0129 2.46091 20.6166 3.25026 20.6166H4.64335C5.15413 20.6166 5.57194 21.0345 5.57194 21.5452V24.4706L8.91515 20.8951C9.10074 20.7096 9.33298 20.6166 9.61152 20.6166H17.691C18.4804 20.6166 19.0841 20.0129 19.0841 19.2235C19.0841 18.7127 19.5019 18.2949 20.0127 18.2949C20.5235 18.2949 20.9413 18.7127 20.9413 19.2235C20.9413 21.0344 19.5019 22.4738 17.691 22.4738H9.98365L5.29395 27.4423C5.15435 27.6742 4.8758 27.7672 4.64356 27.7672L4.64366 27.7673Z" fill="white"/>
</svg>
