<svg width="43" height="49" viewBox="0 0 43 49" fill="none" xmlns="http://www.w3.org/2000/svg">
<path d="M14.062 20.6432L7.4833 14.0645L26.6275 14.064C27.3393 16.5747 29.2254 18.5843 31.6862 19.4531C34.147 20.322 36.8765 19.9426 39.0074 18.4354C41.1377 16.9286 42.4043 14.4811 42.4043 11.8709C42.4043 9.26129 41.1377 6.81377 39.0074 5.30649C36.8765 3.7992 34.147 3.41987 31.6862 4.28923C29.2254 5.15809 27.3393 7.16712 26.6275 9.67834H7.4833L14.062 3.09967L10.9628 0L0.64095 10.3214C0.230485 10.7328 0 11.2902 0 11.8709C0 12.4522 0.230472 13.0095 0.64095 13.421L10.9628 23.7424L14.062 20.6432ZM34.3549 8.21594C35.3242 8.21594 36.2537 8.60142 36.9396 9.28673C37.6249 9.97203 38.0098 10.9016 38.0098 11.8709C38.0098 12.8402 37.6249 13.7703 36.9396 14.4556C36.2537 15.1409 35.3242 15.5259 34.3549 15.5259C33.3855 15.5259 32.456 15.1409 31.7701 14.4556C31.0848 13.7703 30.6999 12.8403 30.6999 11.8709C30.6999 10.9016 31.0848 9.97203 31.7701 9.28673C32.456 8.60142 33.3855 8.21594 34.3549 8.21594Z" fill="#EF9334"/>
<path d="M9.92946 48.5289L17.566 40.948L15.2728 38.6718L10.4056 43.5035L10.4056 32.3585L7.16046 32.3585L7.16046 43.5035L2.29327 38.6718L3.11077e-06 40.948L7.63658 48.5289C7.94063 48.8303 8.35297 49 8.78302 49C9.21307 49 9.62542 48.8304 9.92946 48.5289Z" fill="#EF9334"/>
<path d="M32.5989 32.8295L24.9623 40.4104L27.2556 42.6866L32.1227 37.8549V48.9999H35.3679V37.8549L40.235 42.6866L42.5283 40.4104L34.8917 32.8295C34.5877 32.5281 34.1753 32.3584 33.7453 32.3584C33.3153 32.3584 32.9029 32.528 32.5989 32.8295Z" fill="#EF9334"/>
</svg>
