<svg width="70" height="48" viewBox="0 0 70 48" fill="none" xmlns="http://www.w3.org/2000/svg">
<path fillRule="evenodd" clipRule="evenodd" d="M35.276 0C28.7701 0 23.4464 5.24865 23.4464 11.7555C23.4464 14.2486 24.215 16.5735 25.5572 18.4799C24.4977 19.0661 23.505 19.7624 22.5875 20.566C22.2336 20.2998 21.8632 20.0823 21.4831 19.8544C22.3185 18.5188 22.8082 16.9493 22.8082 15.2647C22.8082 10.3963 18.8027 6.45427 13.9484 6.45427C9.09422 6.45427 5.08853 10.3963 5.08853 15.2647C5.08853 16.9493 5.57828 18.5182 6.41369 19.8544C3.0611 21.8983 0.572388 25.5353 0.572388 30.4322V35.2426C0.58444 35.9482 1.15636 36.3974 1.55407 36.7398C7.49957 40.9157 11.9379 41.6049 17.2119 40.6665C17.2196 40.6753 17.2284 40.683 17.236 40.6906C32.3315 52.7519 46.9264 46.6422 53.3859 40.6665C58.6345 41.5803 63.9637 40.2256 69.0676 36.6904C69.8312 36.1958 69.954 35.8397 70 34.9972V30.4322C70 25.5155 67.5167 21.8632 64.1592 19.8297C64.9881 18.4974 65.4844 16.9422 65.4844 15.2647C65.4844 10.3963 61.4788 6.45427 56.6245 6.45427C51.771 6.45427 47.7894 10.3963 47.7894 15.2647C47.7894 16.9394 48.2638 18.499 49.0899 19.8297C48.7157 20.051 48.3394 20.28 47.9855 20.5413C47.0723 19.7459 46.0676 19.0601 45.0158 18.4799C46.3601 16.5735 47.1512 14.2486 47.1512 11.7555C47.1512 5.24865 41.8051 0 35.273 0H35.276ZM35.276 3.14111C40.139 3.14111 44.0131 6.95552 44.0131 11.7555C43.7135 16.7275 39.9752 20.3245 35.276 20.3946C30.4547 20.3946 26.5882 16.5205 26.5882 11.7555C26.5882 6.95552 30.4492 3.14111 35.276 3.14111ZM13.9496 9.59541C17.128 9.59541 19.6676 12.1005 19.6676 15.2648C19.6676 18.3912 17.128 20.8848 13.9496 20.8848C10.741 20.6892 8.28304 18.7088 8.23158 15.2648C8.23158 12.1011 10.7712 9.59541 13.9496 9.59541ZM56.6276 9.59541C59.8061 9.59541 62.3457 12.1005 62.3457 15.2648C62.3457 18.3912 59.8061 20.8848 56.6276 20.8848C53.2931 20.8108 50.9813 18.4722 50.9336 15.2648C50.9336 12.1011 53.4487 9.59541 56.6276 9.59541ZM27.7914 20.8354C29.8392 22.509 32.4352 23.535 35.2767 23.535C38.1249 23.535 40.7604 22.5282 42.8114 20.8601C47.2005 22.9451 50.3948 26.9057 50.3948 33.1805V39.144C40.2076 46.0908 30.4862 46.1023 20.1827 39.0952V33.1804C20.1827 26.8822 23.3764 22.9308 27.7908 20.836L27.7914 20.8354ZM19.3243 22.2099C19.7094 22.4087 20.0562 22.6558 20.4041 22.8968C18.3459 25.5855 17.0415 29.0318 17.0415 33.1798V37.4994C12.6102 38.423 8.27928 37.4364 3.71487 34.407V30.4308C3.71487 26.2532 5.74009 23.679 8.59861 22.2339C10.0892 23.3569 11.9485 24.0252 13.9485 24.0252C15.9612 24.0252 17.8281 23.3443 19.3231 22.2092L19.3243 22.2099ZM51.2782 22.2099C52.772 23.3428 54.6181 24.0259 56.6281 24.0259C58.6308 24.0259 60.4869 23.3351 61.9785 22.2099C64.8293 23.6436 66.8623 26.2375 66.8623 30.4315V34.3829C62.2892 37.4364 57.9362 38.4231 53.5362 37.524V33.1798C53.5362 29.0257 52.2428 25.564 50.1736 22.8721C50.5231 22.6344 50.8946 22.4065 51.278 22.2092L51.2782 22.2099Z" fill="#EF9334"/>
</svg>
