<svg width="33" height="32" viewBox="0 0 33 32" fill="none" xmlns="http://www.w3.org/2000/svg">
<path d="M31.5047 11.8476L28.9524 10.5524V2.28583C28.9524 1.0287 27.9237 0 26.6665 0L6.09531 0.000265729C4.83818 0.000265729 3.80948 1.02889 3.80948 2.28609V10.5527L1.25713 11.8478C0.495301 12.2289 0 13.0287 0 13.9048V29.7142C0 30.9713 1.02863 32 2.28583 32H30.476C31.7331 32 32.7618 30.9714 32.7618 29.7142V13.9048C32.7618 13.0287 32.3045 12.2286 31.5047 11.8478V11.8476ZM5.33355 2.28576C5.33355 1.8667 5.67634 1.52393 6.09538 1.52393H26.6666C27.0856 1.52393 27.4284 1.86672 27.4284 2.28576V16.7999L16.3809 26.0569L5.33341 16.7999L5.33355 2.28576ZM31.238 29.714C31.238 30.1331 30.8952 30.4759 30.4762 30.4759H2.28603C1.86697 30.4759 1.5242 30.1331 1.5242 29.714V13.9047C1.5242 13.5999 1.67647 13.3714 1.94326 13.2191L3.80997 12.2667L3.80971 17.1429C3.80971 17.3714 3.92397 17.5619 4.0765 17.7142L15.8859 27.6189C16.0382 27.7331 16.1907 27.8094 16.3812 27.8094C16.5717 27.8094 16.724 27.7331 16.8765 27.6189L28.6859 17.7142C28.8765 17.5619 28.9527 17.3714 28.9527 17.1429L28.9522 12.2285L30.8189 13.1809C31.0857 13.2951 31.238 13.5619 31.238 13.8665L31.238 29.714ZM23.3524 8.11427L15.7334 15.3904C15.4286 15.6572 15.0096 15.6952 14.7048 15.3904L11.924 12.9523L11.8097 12.838L11.3144 13.2951L8.91434 15.4283C8.76207 15.5429 8.57154 15.6189 8.38102 15.6189C8.19049 15.6189 7.96196 15.5426 7.80971 15.3521C7.54291 15.0473 7.54291 14.552 7.88597 14.2854L11.3144 11.2378C11.6192 10.971 12.0382 10.971 12.343 11.2378L13.3716 12.1521L15.2383 13.7901L21.6002 7.69475L22.3241 7.00918L22.4763 6.85718H21.3334C20.9143 6.85718 20.5716 6.51439 20.5716 6.09535C20.5716 5.67631 20.9144 5.33352 21.3334 5.33352H24.3811C24.8001 5.33352 25.1429 5.67631 25.1429 6.09535V9.14301C25.1429 9.56206 24.8001 9.90483 24.3811 9.90483C23.962 9.90483 23.6192 9.56204 23.6192 9.14301V7.88588L23.3524 8.11427ZM7.61924 6.09524C7.61924 5.67619 7.96203 5.33341 8.38107 5.33341H12.9524C13.3714 5.33341 13.7142 5.67621 13.7142 6.09524C13.7142 6.5143 13.3714 6.85707 12.9524 6.85707L8.38107 6.85734C7.96201 6.85734 7.61924 6.51428 7.61924 6.09524V6.09524Z" fill="white"/>
</svg>
