<svg width="54" height="66" viewBox="0 0 54 66" fill="none" xmlns="http://www.w3.org/2000/svg">
<path d="M13.75 44H6.875C3.0843 44 0 40.9157 0 37.125V27.5C0 23.7093 3.0843 20.625 6.875 20.625H13.75C14.5093 20.625 15.125 21.24 15.125 22V42.625C15.125 43.385 14.5093 44 13.75 44ZM6.875 23.375C4.60041 23.375 2.75 25.2254 2.75 27.5V37.125C2.75 39.3996 4.60041 41.25 6.875 41.25H12.375V23.375H6.875Z" fill="#7215FA"/>
<path d="M46.75 44H39.875C39.1157 44 38.5 43.385 38.5 42.625V22C38.5 21.24 39.1157 20.625 39.875 20.625H46.75C50.5407 20.625 53.625 23.7093 53.625 27.5V37.125C53.625 40.9157 50.5407 44 46.75 44ZM41.25 41.25H46.75C49.0246 41.25 50.875 39.3996 50.875 37.125V27.5C50.875 25.2254 49.0246 23.375 46.75 23.375H41.25V41.25Z" fill="#7215FA"/>
<path d="M46.75 23.375C45.9907 23.375 45.375 22.76 45.375 22C45.375 11.3853 36.7397 2.75 26.125 2.75C15.5103 2.75 6.875 11.3853 6.875 22C6.875 22.76 6.25934 23.375 5.5 23.375C4.74066 23.375 4.125 22.76 4.125 22C4.125 9.86941 13.9944 0 26.125 0C38.2556 0 48.125 9.86941 48.125 22C48.125 22.76 47.5093 23.375 46.75 23.375Z" fill="#7215FA"/>
<path d="M26.125 66C23.0407 66 20.625 64.1886 20.625 61.875C20.625 59.5614 23.0407 57.75 26.125 57.75C29.2093 57.75 31.625 59.5614 31.625 61.875C31.625 64.1886 29.2093 66 26.125 66ZM26.125 60.5C24.4465 60.5 23.375 61.3137 23.375 61.875C23.375 62.4363 24.4465 63.25 26.125 63.25C27.8035 63.25 28.875 62.4363 28.875 61.875C28.875 61.3137 27.8035 60.5 26.125 60.5Z" fill="#7215FA"/>
<path d="M30.25 63.25C29.4907 63.25 28.875 62.635 28.875 61.875C28.875 61.115 29.4907 60.5 30.25 60.5C38.2106 60.5 44.6875 52.481 44.6875 42.625C44.6875 41.865 45.3032 41.25 46.0625 41.25C46.8218 41.25 47.4375 41.865 47.4375 42.625C47.4375 53.9983 39.7274 63.25 30.25 63.25Z" fill="#7215FA"/>
</svg>
