<svg width="57" height="66" viewBox="0 0 57 66" fill="none" xmlns="http://www.w3.org/2000/svg">
<path d="M0.00261451 13.1124C0.808092 35.9008 9.25289 52.9443 25.819 65.2161C26.5228 65.7398 27.3659 66 28.2088 66C29.053 66 29.8961 65.7398 30.6015 65.2161C47.1656 52.9443 55.6103 35.8993 56.4165 13.1124C56.4888 11.0347 54.9459 9.26836 52.8266 9.00261C45.5961 8.10266 38.217 5.34428 30.273 0.572202C28.9996 -0.190734 27.419 -0.190734 26.1455 0.572202H26.1466C18.2018 5.34485 10.8243 8.10327 3.59303 9.00318C1.47104 9.26836 -0.0719442 11.0345 0.00258862 13.1124H0.00261451ZM27.5048 2.83619H27.5059C27.7225 2.7047 27.965 2.64007 28.2086 2.64007C28.4523 2.64007 28.6948 2.70471 28.9125 2.83619C37.1805 7.8016 44.8953 10.6761 52.4985 11.6224C53.2526 11.718 53.8029 12.3185 53.7785 13.0196C53.0012 34.9509 44.9062 51.3326 29.03 63.0966C28.5543 63.4474 27.8659 63.4474 27.3903 63.0966C11.5121 51.3326 3.41811 34.9509 2.64026 13.0196C2.61595 12.329 3.1778 11.7152 3.9203 11.6224C11.5249 10.6761 19.2398 7.8016 27.5049 2.83619H27.5048Z" fill="#7215FA"/>
<path d="M19.6003 46.0582H36.8787C39.32 46.0582 41.3067 44.0705 41.3067 41.6293V28.6095C41.3067 26.1815 39.3411 24.2053 36.9174 24.1843V21.2077C36.9174 16.4229 33.0243 12.5298 28.2395 12.5298C23.453 12.5298 19.5605 16.4229 19.5605 21.2077V24.1843C17.1374 24.2064 15.1724 26.1815 15.1724 28.6095V41.6293C15.1724 44.0706 17.159 46.0582 19.6003 46.0582ZM22.2002 21.2078C22.2002 17.8793 24.91 15.1701 28.2396 15.1701C31.5693 15.1701 34.2774 17.8799 34.2774 21.2078V24.1778H22.2001L22.2002 21.2078ZM17.8127 28.6096C17.8127 27.6224 18.6143 26.8203 19.6005 26.8203H36.8788C37.8649 26.8203 38.6666 27.6219 38.6666 28.6096V41.6294C38.6666 42.6167 37.865 43.4188 36.8788 43.4188H19.6005C18.6144 43.4188 17.8127 42.6171 17.8127 41.6294V28.6096Z" fill="#7215FA"/>
<path d="M26.9067 37.967V39.1957C26.9067 39.9255 27.4973 40.5155 28.2265 40.5155C28.9563 40.5155 29.5463 39.9249 29.5463 39.1957V37.9692C31.2412 37.4102 32.4766 35.829 32.4766 33.949C32.4766 31.6209 30.5701 29.7261 28.2265 29.7261C25.8973 29.7261 24.0024 31.6209 24.0024 33.949C24.0024 35.8262 25.2261 37.4052 26.9067 37.967V37.967ZM28.227 32.3662C29.1154 32.3662 29.8369 33.075 29.8369 33.9489C29.8369 34.8384 29.1149 35.5605 28.227 35.5605C27.3531 35.5605 26.6426 34.8384 26.6426 33.9489C26.6426 33.0622 27.3387 32.3662 28.227 32.3662Z" fill="#7215FA"/>
</svg>
