<svg width="63" height="49" viewBox="0 0 63 49" fill="none" xmlns="http://www.w3.org/2000/svg">
<path d="M37.8795 49H16.7208C10.9509 49.006 5.58666 46.034 2.53267 41.139C-0.521307 36.2441 -0.83401 30.1197 1.70691 24.9387C4.24782 19.7578 9.28204 16.2565 15.0219 15.6759C17.1751 10.0994 21.2926 5.50213 26.5996 2.75029C31.9061 -0.001423 38.036 -0.718336 43.8346 0.735347C49.6329 2.18852 54.6998 5.71187 58.0812 10.6416C61.4628 15.5713 62.925 21.567 62.1932 27.4998C61.4609 33.4328 58.5853 38.8934 54.1071 42.8537C49.6292 46.8135 43.8579 48.9995 37.8801 49H37.8795ZM37.8795 4.45533C33.611 4.44489 29.4513 5.8016 26.0095 8.32716C22.5682 10.8527 20.0263 14.4137 18.7556 18.4889L18.2674 20.0376L16.6437 20.046C12.2672 20.0599 8.23046 22.4075 6.05439 26.2043C3.87781 30.0015 3.89283 34.6712 6.09267 38.454C8.29305 42.2374 12.3443 44.5596 16.7208 44.5456H37.8795C45.041 44.5456 51.6591 40.7249 55.2392 34.523C58.8202 28.3211 58.8202 20.6798 55.2392 14.4779C51.6587 8.27604 45.0411 4.45539 37.8795 4.45539L37.8795 4.45533Z" fill="#EF9334"/>
<path d="M24.516 28.955H20.0615C20.065 26.0025 21.2393 23.1721 23.3273 21.0846C25.4148 18.9966 28.2451 17.8223 31.1977 17.8188V22.2733C29.4263 22.2753 27.7275 22.9798 26.4753 24.2326C25.2225 25.485 24.518 27.1838 24.516 28.955Z" fill="#EF9334"/>
<path d="M31.1979 40.091V35.6365C32.9692 35.6345 34.668 34.9301 35.9202 33.6772C37.1731 32.4249 37.8775 30.7261 37.8796 28.9548H42.334C42.3306 31.9074 41.1563 34.7377 39.0683 36.8252C36.9808 38.9132 34.1504 40.0876 31.1979 40.091Z" fill="#EF9334"/>
</svg>
