<svg width="65" height="66" viewBox="0 0 65 66" fill="none" xmlns="http://www.w3.org/2000/svg">
<path d="M42.3453 34.9336C41.7393 34.9336 41.2477 35.4248 41.2477 36.0312C41.2477 38.1098 39.8712 39.8001 38.18 39.8001L25.9607 39.8005C24.2685 39.8005 22.893 38.1093 22.893 36.0317L22.8925 21.754C22.8925 19.6755 24.2685 17.9843 25.9602 17.9843H38.1795C39.8717 17.9843 41.2472 19.6755 41.2472 21.754C41.2472 22.361 41.7389 22.8517 42.3449 22.8517C42.9509 22.8517 43.4425 22.3605 43.4425 21.754C43.4425 18.4644 41.0809 15.7886 38.1791 15.7886H33.168V11.9494C33.168 11.3425 32.6768 10.8518 32.0703 10.8518C31.4634 10.8518 30.9727 11.343 30.9727 11.9494V15.7886H25.9612C23.0588 15.7886 20.6978 18.4644 20.6978 21.754V36.0305C20.6978 39.3192 23.0588 41.995 25.9612 41.995H30.9727V45.8342C30.9727 46.4402 31.4639 46.9318 32.0703 46.9318C32.6773 46.9318 33.168 46.4402 33.168 45.8342V41.995H38.1805C41.0828 41.995 43.4439 39.3192 43.4439 36.0305C43.4439 35.424 42.9523 34.9329 42.3463 34.9329L42.3453 34.9336Z" fill="#7215FA"/>
<path d="M16.16 52.547C15.9413 52.547 15.7203 52.4818 15.5283 52.3467C7.89876 46.9634 3.34424 38.1832 3.34424 28.8584C3.34424 13.02 16.2293 0.133789 32.0689 0.133789C47.9073 0.133789 60.7935 13.0188 60.7935 28.8584C60.7935 31.9753 60.2973 35.0398 59.3197 37.9665C59.1271 38.5408 58.5074 38.8514 57.9307 38.6594C57.3564 38.4669 57.0454 37.8457 57.2379 37.2704C58.1402 34.5684 58.5982 31.7383 58.5982 28.8584C58.5978 14.2302 46.6965 2.32967 32.0683 2.32967C17.4402 2.32967 5.53962 14.2302 5.53962 28.8584C5.53962 37.4707 9.74717 45.5801 16.7938 50.553C17.2891 50.9027 17.4071 51.5872 17.058 52.0825C16.8443 52.3862 16.5048 52.5475 16.1602 52.5475L16.16 52.547Z" fill="#7215FA"/>
<path d="M64.0308 44.7996C63.904 44.5377 63.6789 44.3355 63.4041 44.2395L57.2324 42.0829C56.6594 41.883 56.0337 42.1853 55.8338 42.7569C55.6339 43.3294 55.9353 43.9555 56.5078 44.1555L60.147 45.4272L32.5491 58.211L27.95 52.0062C27.6381 51.5868 27.0725 51.4443 26.5998 51.6672L0.629747 63.91C0.0807065 64.1682 -0.153141 64.8225 0.105065 65.3706C0.292525 65.768 0.687179 66 1.0993 66C1.25597 66 1.4154 65.9665 1.56702 65.8948L26.7231 54.0366L31.3185 60.2359C31.6286 60.654 32.19 60.7978 32.6614 60.5782L61.1414 47.3873L59.849 51.0845C59.6492 51.657 59.9506 52.2832 60.5231 52.4831C60.643 52.5254 60.7652 52.5447 60.8851 52.5447C61.339 52.5447 61.7631 52.2617 61.9216 51.8091L64.0782 45.6383C64.1738 45.3635 64.1568 45.0617 64.0305 44.7993L64.0308 44.7996Z" fill="#7215FA"/>
</svg>
