<svg width="38" height="39" viewBox="0 0 38 39" fill="none" xmlns="http://www.w3.org/2000/svg">
<path d="M35.8531 21.8434H35.4206V12.6103C35.4206 11.3362 34.3925 10.3023 33.1261 10.3018V2.69251C33.1261 1.31455 31.8457 0.798091 30.8311 1.06994L2.67413 9.78407C1.12378 10.2635 1 11.0728 1 12.6105V35.6915C1 36.9656 2.02807 38 3.29451 38H33.1257C34.3924 37.9997 35.4202 36.9659 35.4202 35.6915V28.7672H35.8527C36.4862 28.7672 37 28.2513 37 27.6132V22.9968C37 22.3602 36.4857 21.8428 35.8527 21.8428L35.8531 21.8434ZM30.2549 3.88071C30.6036 3.77517 30.8311 3.92143 30.8311 4.29566V10.3029L9.10853 10.3026L30.2549 3.88071ZM33.1262 34.538C33.1262 35.1763 32.6121 35.692 31.9789 35.692L4.44233 35.6917C3.80913 35.6917 3.29508 35.1761 3.29508 34.5377L3.29479 13.8352C3.29479 12.9153 3.44818 12.6104 4.48934 12.6104H31.9785C32.6117 12.6104 33.1257 13.1263 33.1257 13.7644V21.8428L27.3892 21.843C26.756 21.843 26.242 22.3601 26.242 22.997V27.6135C26.242 28.2515 26.7557 28.7674 27.3892 28.7674H33.126L33.1262 34.538ZM34.7059 26.4596H28.5367V24.1517H34.7059V26.4596Z" fill="white" stroke="white" strokeWidth="1.5"/>
</svg>
